<?xml version="1.0" encoding="utf-8"?>
<!-- Generator: Adobe Illustrator 22.1.0, SVG Export Plug-In . SVG Version: 6.00 Build 0)  -->
<svg version="1.1" id="图层_1" xmlns="http://www.w3.org/2000/svg" xmlns:xlink="http://www.w3.org/1999/xlink" x="0px" y="0px"
	 viewBox="0 0 94 82" style="enable-background:new 0 0 94 82;" xml:space="preserve">
<style type="text/css">
	.st0{fill:url(#path-2_1_);}
	.st1{fill:#FFFFFF;}
	.st2{filter:url(#Adobe_OpacityMaskFilter);}
	.st3{mask:url(#mask-6_2_);fill:#4267E7;}
</style>
<title>云端部署</title>
<desc>Created with Sketch.</desc>
<g>
	
		<linearGradient id="path-2_1_" gradientUnits="userSpaceOnUse" x1="-246.8178" y1="437.9608" x2="-246.318" y2="437.5321" gradientTransform="matrix(84 0 0 -55 20755 24110.0703)">
		<stop  offset="0" style="stop-color:#4899EF"/>
		<stop  offset="0.9983" style="stop-color:#4267E7"/>
	</linearGradient>
	<path id="path-2_2_" class="st0" d="M89,45.4c-1.9,13.3-15.5,13.3-15.5,13.3H48.9l0,0l-29,0c0,0-14.6-0.1-14.9-14.2
		c0-14,13.7-16.7,13.7-16.7s-1.1-7,5.1-10.8c6.9-4,12,0.9,12,0.9s5.1-15.8,22-14c19.7,2.5,18.1,24.1,18.1,24.1S89.9,30.8,89,45.4z"
		/>
</g>
<g>
	<g id="Mask_1_">
		<path class="st1" d="M33.1,68v3.1c0,0.9,0.7,1.5,1.5,1.5h3.1c0.9,0,1.5-0.7,1.5-1.5V68c0-0.9-0.7-1.5-1.5-1.5h-3.1
			C33.8,66.5,33.1,67.2,33.1,68z"/>
		<path class="st1" d="M62.5,54.1c0.9,0,1.5-0.7,1.5-1.5v-9.3c0-0.9-0.7-1.5-1.5-1.5h-9.3c-0.9,0-1.5,0.7-1.5,1.5v3.1h-9.3v-3.1
			c0-0.9-0.7-1.5-1.5-1.5h-9.3c-0.9,0-1.5,0.7-1.5,1.5v9.3c0,0.9,0.7,1.5,1.5,1.5h3.1v9.3h-3.1c-0.9,0-1.5,0.7-1.5,1.5v9.3
			c0,0.9,0.7,1.5,1.5,1.5h9.3c0.9,0,1.5-0.7,1.5-1.5v-3.1h9.3v3.1c0,0.9,0.7,1.5,1.5,1.5h9.3c0.9,0,1.5-0.7,1.5-1.5v-9.3
			c0-0.9-0.7-1.5-1.5-1.5h-3.1v-9.3H62.5z M33.1,49.5v-3.1c0-0.9,0.7-1.5,1.5-1.5h3.1c0.9,0,1.5,0.7,1.5,1.5v3.1
			c0,0.9-0.7,1.5-1.5,1.5h-3.1C33.8,51,33.1,50.3,33.1,49.5z M51.6,64.9V68h-9.3v-3.1c0-0.9-0.7-1.5-1.5-1.5h-3.1v-9.3h3.1
			c0.9,0,1.5-0.7,1.5-1.5v-3.1h9.3v3.1c0,0.9,0.7,1.5,1.5,1.5h3.1v9.3h-3.1C52.3,63.4,51.6,64.1,51.6,64.9z M60.9,68v3.1
			c0,0.9-0.7,1.5-1.5,1.5h-3.1c-0.9,0-1.5-0.7-1.5-1.5V68c0-0.9,0.7-1.5,1.5-1.5h3.1C60.2,66.5,60.9,67.2,60.9,68z M56.3,51
			c-0.9,0-1.5-0.7-1.5-1.5v-3.1c0-0.9,0.7-1.5,1.5-1.5h3.1c0.9,0,1.5,0.7,1.5,1.5v3.1c0,0.9-0.7,1.5-1.5,1.5H56.3z"/>
	</g>
	<defs>
		<filter id="Adobe_OpacityMaskFilter" filterUnits="userSpaceOnUse" x="26" y="58.7" width="46" height="21">
			<feColorMatrix  type="matrix" values="1 0 0 0 0  0 1 0 0 0  0 0 1 0 0  0 0 0 1 0"/>
		</filter>
	</defs>
	<mask maskUnits="userSpaceOnUse" x="26" y="58.7" width="46" height="21" id="mask-6_2_">
		<g class="st2">
			<path id="path-5_1_" class="st1" d="M62.5,63.4c0.9,0,1.5,0.7,1.5,1.5v9.3c0,0.9-0.7,1.5-1.5,1.5h-9.3c-0.9,0-1.5-0.7-1.5-1.5
				v-3.1h-9.3v3.1c0,0.9-0.7,1.5-1.5,1.5h-9.3c-0.9,0-1.5-0.7-1.5-1.5v-9.3c0-0.9,0.7-1.5,1.5-1.5h3.1v-9.3h-3.1
				c-0.9,0-1.5-0.7-1.5-1.5v-9.3c0-0.9,0.7-1.5,1.5-1.5h9.3c0.9,0,1.5,0.7,1.5,1.5v3.1h9.3v-3.1c0-0.9,0.7-1.5,1.5-1.5h9.3
				c0.9,0,1.5,0.7,1.5,1.5v9.3c0,0.9-0.7,1.5-1.5,1.5h-3.1v9.3H62.5z M33.1,68v3.1c0,0.9,0.7,1.5,1.5,1.5h3.1c0.9,0,1.5-0.7,1.5-1.5
				V68c0-0.9-0.7-1.5-1.5-1.5h-3.1C33.8,66.5,33.1,67.2,33.1,68z M39.3,46.4c0-0.9-0.7-1.5-1.5-1.5h-3.1c-0.9,0-1.5,0.7-1.5,1.5v3.1
				c0,0.9,0.7,1.5,1.5,1.5h3.1c0.9,0,1.5-0.7,1.5-1.5V46.4z M51.6,52.6v-3.1h-9.3v3.1c0,0.9-0.7,1.5-1.5,1.5h-3.1v9.3h3.1
				c0.9,0,1.5,0.7,1.5,1.5V68h9.3v-3.1c0-0.9,0.7-1.5,1.5-1.5h3.1v-9.3h-3.1C52.3,54.1,51.6,53.4,51.6,52.6z M60.9,49.5v-3.1
				c0-0.9-0.7-1.5-1.5-1.5h-3.1c-0.9,0-1.5,0.7-1.5,1.5v3.1c0,0.9,0.7,1.5,1.5,1.5h3.1C60.2,51,60.9,50.3,60.9,49.5z M56.3,66.5
				c-0.9,0-1.5,0.7-1.5,1.5v3.1c0,0.9,0.7,1.5,1.5,1.5h3.1c0.9,0,1.5-0.7,1.5-1.5V68c0-0.9-0.7-1.5-1.5-1.5H56.3z"/>
		</g>
	</mask>
	<rect x="26" y="58.7" class="st3" width="46" height="21"/>
</g>
</svg>
