<?xml version="1.0" encoding="utf-8"?>
<!-- Generator: Adobe Illustrator 22.1.0, SVG Export Plug-In . SVG Version: 6.00 Build 0)  -->
<svg version="1.1" id="图层_1" xmlns="http://www.w3.org/2000/svg" xmlns:xlink="http://www.w3.org/1999/xlink" x="0px" y="0px"
	 viewBox="0 0 69 78" style="enable-background:new 0 0 69 78;" xml:space="preserve">
<style type="text/css">
	.st0{fill:#FFFFFF;fill-opacity:0;}
	.st1{fill:url(#形状_1_);}
</style>
<title>ai机器</title>
<desc>Created with Sketch.</desc>
<g id="_x33_-0">
	<g id="米知云" transform="translate(-686.000000, -4469.000000)">
		<g id="banner">
			<g id="特点与优势" transform="translate(0.000000, 3941.000000)">
				<g id="ai机器" transform="translate(670.000000, 517.000000)">
					<rect id="矩形" y="0" class="st0" width="100" height="100"/>
					
						<linearGradient id="形状_1_" gradientUnits="userSpaceOnUse" x1="-242.9511" y1="449.1818" x2="-242.5271" y2="448.1818" gradientTransform="matrix(69 0 0 -78 16796 35048.1719)">
						<stop  offset="0" style="stop-color:#AFA4FC"/>
						<stop  offset="1" style="stop-color:#4267E7"/>
					</linearGradient>
					<path id="形状" class="st1" d="M55.9,89l-32-2.7c-0.8,0-1.6-0.4-2.2-1c-0.6-0.6-0.8-1.5-0.7-2.3l2.9-19.2
						C18.7,55.9,16,48.5,16,41.6v-2.5C16,23.6,30,11,47.3,11c8,0,15.8,2.8,22,8c3.7,2.7,6.5,6.4,8.1,10.7c1.1,2.8,1.7,5.8,1.8,8.9
						c0,1.2-0.2,2.4-0.4,3.6c-0.3,1.6-0.5,3.1,0,4.1l0.1,0.1c0.4,0.9,1.6,2.1,2.6,3.1c0.5,0.4,0.9,0.9,1.4,1.4c1.4,1,2.5,2.8,2,4.7
						c-0.7,2.4-3.2,3.3-5.9,3.6l-0.6,1.4c-1,2.4-1.6,4-2.1,5c1.2,7.2,0.4,11.6-2.4,12.9c-0.1,0.1-0.3,0.1-0.4,0.2
						c-0.9,0.3-1.8,0.4-2.7,0.4c-2.4,0.1-5.6,0-8.7,0L60,79l-1.2,7.5C58.6,87.9,57.3,89,55.9,89z M58.4,48.1l0.3,0
						c5.6-0.3,9.3-3.6,9.3-8.6c0-10.6-6.4-12.1-10.3-12.1c-0.7,0-1.4,0.1-2.1,0.2c-1.5-3.4-4.7-5.5-8.3-5.6c-3.6-0.1-7,1.9-8.6,5.2
						c-0.1,0.1-0.2,0.3-0.2,0.5c-1.1-0.4-2.3-0.6-3.5-0.5c-5.1,0.3-9.1,4.6-9,9.8c0,6.2,4.9,11.2,11,11.2h0.3c1,0,2-0.6,2.5-1.5
						c0.5-0.9,0.5-2,0-3c-0.5-0.9-1.5-1.5-2.5-1.5h-0.3c-2.9,0-5.2-2.4-5.2-5.3c-0.1-2,1.4-3.7,3.4-3.9c1.2-0.1,2.4,0.5,3.1,1.6
						c0.8,1.2,2.3,1.6,3.6,1.1c1.3-0.6,2-2,1.7-3.4c-0.2-0.8-0.1-1.7,0.3-2.4c0.5-1.1,1.6-1.9,2.8-2c1-0.1,2,0.2,2.8,0.9
						c0.8,0.7,1.2,1.7,1.2,2.7v0.2c-0.1,1.2,0.6,2.3,1.6,2.8s2.3,0.4,3.2-0.4c0.6-0.6,1.5-0.9,2.3-0.9c1.9,0,4.5,0,4.5,6.2
						c0,0.7,0,2.7-4.1,2.7c-1.6,0-2.9,1.3-2.9,3s1.3,3,2.9,3H58.4z M47.5,63c0.8,0,1.7-0.1,2.5-0.2c0.6-0.1,1-0.7,0.9-1.3
						c-0.1-0.6-0.7-1-1.3-0.9c-0.7,0.1-1.4,0.2-2.2,0.2c-0.6,0-1.2,0-1.8-0.1c-0.4,0-0.8,0.1-1,0.4c-0.2,0.3-0.3,0.7-0.1,1.1
						c0.2,0.4,0.5,0.6,0.9,0.7C46.1,63,46.8,63,47.5,63z M39.9,61.2L39.9,61.2c0.5-0.1,0.9-0.4,1.1-0.9c0.1-0.5-0.1-1-0.6-1.2
						c-1.2-0.6-2.4-1.3-3.4-2.2c-0.5-0.3-1.1-0.3-1.4,0.2c-0.4,0.4-0.4,1.1,0,1.5c1.2,1.1,2.5,1.9,3.9,2.6
						C39.6,61.2,39.8,61.2,39.9,61.2z M55.4,60.9c0.2,0,0.4,0,0.5-0.1c1.3-0.8,2.6-1.7,3.8-2.7c0.3-0.3,0.4-0.7,0.3-1.1
						c-0.1-0.4-0.4-0.7-0.7-0.8s-0.8,0-1.1,0.2c-1,0.9-2.2,1.7-3.4,2.4c-0.4,0.2-0.7,0.8-0.5,1.2C54.4,60.6,54.9,60.9,55.4,60.9z"/>
				</g>
			</g>
		</g>
	</g>
</g>
</svg>
