<?xml version="1.0" encoding="utf-8"?>
<!-- Generator: Adobe Illustrator 22.1.0, SVG Export Plug-In . SVG Version: 6.00 Build 0)  -->
<svg version="1.1" id="图层_1" xmlns="http://www.w3.org/2000/svg" xmlns:xlink="http://www.w3.org/1999/xlink" x="0px" y="0px"
	 viewBox="0 0 88 87" style="enable-background:new 0 0 88 87;" xml:space="preserve">
<style type="text/css">
	.st0{fill:url(#path-2_3_);}
	.st1{fill:none;}
</style>
<title>优秀团队</title>
<desc>Created with Sketch.</desc>
<g>
	<linearGradient id="path-2_3_" gradientUnits="userSpaceOnUse" x1="44" y1="4.5936" x2="44" y2="82.4064">
		<stop  offset="0" style="stop-color:#4899EF"/>
		<stop  offset="3.155048e-02" style="stop-color:#8AD1FF"/>
		<stop  offset="1" style="stop-color:#4267E7"/>
	</linearGradient>
	<path id="path-2_2_" class="st0" d="M83,46.8c0-3.5-3.9-6.8-9.3-8.6c0,0-1.8-0.8-0.8-3.8c2.7-3,4.3-6.9,4.4-11
		c0.2-3.4-1.4-6.6-4.3-8.3c-2.9-1.8-6.5-1.8-9.3,0c-2.9,1.8-4.5,5-4.3,8.3c0.1,4.1,1.6,8,4.4,11c1,2.6-0.8,3.6-1.1,3.7
		c-1.2,0.5-2.4,1-3.6,1.7v-2.3c0-3.5-4.4-6.8-9.7-8.6c0,0-1.8-0.8-0.8-3.8c2.7-3,4.3-6.8,4.4-10.9c0.2-3.4-1.4-6.6-4.3-8.3
		s-6.5-1.8-9.3,0s-4.5,5-4.3,8.3c0.1,4.1,1.6,8,4.4,11c1,2.6-0.8,3.6-1.1,3.7c-4.9,1.9-9.3,5.3-9.3,8.6v2.4
		c-1.2-0.7-2.4-1.3-3.7-1.8c-0.3,0-2.1-1.1-1.1-3.7c2.7-3,4.3-6.9,4.4-11c0.3-2.5-0.6-5-2.3-6.9s-4.2-2.9-6.7-2.8
		c-2.5-0.1-5,1-6.7,2.8c-1.7,1.9-2.5,4.4-2.3,6.9c0.1,4.1,1.6,8,4.4,11c1,3-0.6,3.7-0.8,3.8C8.9,40,5,43.4,5,46.8v16.1
		c0,8.7,9.7,16.1,23.2,19.5v-4.9c0-3.9,4.9-7.5,9.7-9.4c0.3-0.2,0.6-0.4,0.8-0.8c0.2-0.6,0.2-1.2,0-1.8c-2.8-3.1-4.4-7.1-4.5-11.3
		c0-5.4,4.4-9.7,9.7-9.7s9.7,4.4,9.7,9.7c-0.1,4.2-1.6,8.2-4.4,11.3c-0.5,1.8,0,2.5,0.4,2.6c4.9,1.6,10.2,4.9,10.2,9.4v4.9
		C73.2,79.1,83,71.6,83,62.9V46.8z"/>
</g>
<g>
	<path id="path-2_1_" class="st1" d="M83,46.8c0-3.5-3.9-6.8-9.3-8.6c0,0-1.8-0.8-0.8-3.8c2.7-3,4.3-6.9,4.4-11
		c0.2-3.4-1.4-6.6-4.3-8.3c-2.9-1.8-6.5-1.8-9.3,0c-2.9,1.8-4.5,5-4.3,8.3c0.1,4.1,1.6,8,4.4,11c1,2.6-0.8,3.6-1.1,3.7
		c-1.2,0.5-2.4,1-3.6,1.7v-2.3c0-3.5-4.4-6.8-9.7-8.6c0,0-1.8-0.8-0.8-3.8c2.7-3,4.3-6.8,4.4-10.9c0.2-3.4-1.4-6.6-4.3-8.3
		s-6.5-1.8-9.3,0s-4.5,5-4.3,8.3c0.1,4.1,1.6,8,4.4,11c1,2.6-0.8,3.6-1.1,3.7c-4.9,1.9-9.3,5.3-9.3,8.6v2.4
		c-1.2-0.7-2.4-1.3-3.7-1.8c-0.3,0-2.1-1.1-1.1-3.7c2.7-3,4.3-6.9,4.4-11c0.3-2.5-0.6-5-2.3-6.9s-4.2-2.9-6.7-2.8
		c-2.5-0.1-5,1-6.7,2.8c-1.7,1.9-2.5,4.4-2.3,6.9c0.1,4.1,1.6,8,4.4,11c1,3-0.6,3.7-0.8,3.8C8.9,40,5,43.4,5,46.8v16.1
		c0,8.7,9.7,16.1,23.2,19.5v-4.9c0-3.9,4.9-7.5,9.7-9.4c0.3-0.2,0.6-0.4,0.8-0.8c0.2-0.6,0.2-1.2,0-1.8c-2.8-3.1-4.4-7.1-4.5-11.3
		c0-5.4,4.4-9.7,9.7-9.7s9.7,4.4,9.7,9.7c-0.1,4.2-1.6,8.2-4.4,11.3c-0.5,1.8,0,2.5,0.4,2.6c4.9,1.6,10.2,4.9,10.2,9.4v4.9
		C73.2,79.1,83,71.6,83,62.9V46.8z"/>
</g>
</svg>
