<?xml version="1.0" encoding="utf-8"?>
<!-- Generator: Adobe Illustrator 22.1.0, SVG Export Plug-In . SVG Version: 6.00 Build 0)  -->
<svg version="1.1" id="图层_1" xmlns="http://www.w3.org/2000/svg" xmlns:xlink="http://www.w3.org/1999/xlink" x="0px" y="0px"
	 viewBox="0 0 94 85" style="enable-background:new 0 0 94 85;" xml:space="preserve">
<style type="text/css">
	.st0{fill:url(#path-2_1_);}
	.st1{fill:url(#path-5_1_);}
	.st2{fill:none;stroke:#F7F8F9;stroke-width:5;stroke-linecap:round;}
</style>
<title>人才发展</title>
<desc>Created with Sketch.</desc>
<g>
	<g>
		
			<linearGradient id="path-2_1_" gradientUnits="userSpaceOnUse" x1="-243.2695" y1="441.6136" x2="-243.0164" y2="440.6769" gradientTransform="matrix(39.8625 0 0 -69.1789 9764.7646 30558.2598)">
			<stop  offset="0" style="stop-color:#FEBE8A"/>
			<stop  offset="1" style="stop-color:#FF9E6F"/>
		</linearGradient>
		<path id="path-2_2_" class="st0" d="M87.6,28.9L57.1,5.6c-1.4-1.1-3.3-1.1-4.7,0l-2.9,2.2c-0.1,0.1-0.1,0.2-0.1,0.3
			c0,0.1,0.1,0.2,0.1,0.3l5.2,3.6l27.5,21c0.1,0.1,0.2,0.2,0.1,0.4L71.8,67.4h0l-2,6.5c0,0,0,0,0,0h3.9c1.8,0,3.3-1.2,3.8-2.8
			l11.7-37.8C89.6,31.7,89,30,87.6,28.9z"/>
	</g>
	<g>
		<g>
			
				<linearGradient id="path-5_1_" gradientUnits="userSpaceOnUse" x1="-246.1164" y1="441.6587" x2="-245.6203" y2="440.6587" gradientTransform="matrix(68.9316 0 0 -69.1793 16987.8984 30563.7227)">
				<stop  offset="0" style="stop-color:#8AD1FF"/>
				<stop  offset="1" style="stop-color:#4267E7"/>
			</linearGradient>
			<path id="path-5_2_" class="st1" d="M72.6,34.2L42.1,10.9c-1.4-1.1-3.3-1.1-4.7,0L6.9,34.2c-1.4,1.1-1.9,2.8-1.4,4.5l11.7,37.8
				c0.5,1.7,2,2.8,3.8,2.8h37.6c1.8,0,3.3-1.2,3.8-2.8L74,38.7C74.5,37.1,74,35.3,72.6,34.2L72.6,34.2z"/>
		</g>
		<g>
			<path id="路径-10_1_" class="st2" d="M23.3,58.1c14.6-1.1,23.4-9,26.4-24"/>
			<polyline id="路径-11_1_" class="st2" points="42.4,35.3 51.5,31.3 55.3,39.9 			"/>
		</g>
	</g>
</g>
</svg>
